<svg viewBox="0 0 512 512" xmlns="http://www.w3.org/2000/svg"><rect fill="#fff" height="512" rx="15%" width="512"/><path d="m100 340h74v-166h166v-74h-203q-37 0-37 35" fill="#4285f4"/><path d="m338 100v76h74v-41q0-35-35-35" fill="#1967d2"/><path d="m338 174h74v164h-74" fill="#fbbc04"/><path d="m100 338v39q0 35 35 35h41v-74" fill="#188038"/><path d="m174 338h164v74h-164" fill="#34a853"/><path d="m338 412v-74h74" fill="#ea4335"/><path d="m204 229a25 22 1 1 1 25 27h-9 9a25 22 1 1 1 -25 27m66-52 27-19h4v-7 103" fill="none" stroke="#4285f4" stroke-linejoin="bevel" stroke-width="15"/></svg>